<?xml version="1.0" encoding="UTF-8" standalone="no"?>
<!-- Generator: Adobe Illustrator 16.0.0, SVG Export Plug-In . SVG Version: 6.00 Build 0)  -->

<svg
   xmlns:dc="http://purl.org/dc/elements/1.1/"
   xmlns:cc="http://creativecommons.org/ns#"
   xmlns:rdf="http://www.w3.org/1999/02/22-rdf-syntax-ns#"
   xmlns:svg="http://www.w3.org/2000/svg"
   xmlns="http://www.w3.org/2000/svg"
   xmlns:sodipodi="http://sodipodi.sourceforge.net/DTD/sodipodi-0.dtd"
   xmlns:inkscape="http://www.inkscape.org/namespaces/inkscape"
   version="1.1"
   id="Layer_1"
   x="0px"
   y="0px"
   width="128.042px"
   height="114.043px"
   viewBox="0 0 128.042 114.043"
   enable-background="new 0 0 128.042 114.043"
   xml:space="preserve"
   sodipodi:docname="check_.svg"
   inkscape:version="0.92.2 (5c3e80d, 2017-08-06)"><metadata
     id="metadata839"><rdf:RDF><cc:Work
         rdf:about=""><dc:format>image/svg+xml</dc:format><dc:type
           rdf:resource="http://purl.org/dc/dcmitype/StillImage" /><dc:title></dc:title></cc:Work></rdf:RDF></metadata><defs
     id="defs837" /><sodipodi:namedview
     pagecolor="#ffffff"
     bordercolor="#666666"
     borderopacity="1"
     objecttolerance="10"
     gridtolerance="10"
     guidetolerance="10"
     inkscape:pageopacity="0"
     inkscape:pageshadow="2"
     inkscape:window-width="1920"
     inkscape:window-height="1018"
     id="namedview835"
     showgrid="false"
     inkscape:zoom="7.4445604"
     inkscape:cx="64.021004"
     inkscape:cy="57.0215"
     inkscape:window-x="-8"
     inkscape:window-y="-8"
     inkscape:window-maximized="1"
     inkscape:current-layer="Layer_1" /><g
     id="g832"><path
       fill-rule="evenodd"
       clip-rule="evenodd"
       fill="#969696"
       d="M51.993,114.043c-1.666,0-3.333,0-4.999,0   C31.33,96.046,15.665,78.048,0,60.05c0-1.666,0-3.333,0-4.999c5.408-5.388,10.779-10.815,16.238-16.152   c4.448-4.35,7.695-4.26,11.768,0.401c6.347,7.264,12.654,14.565,18.827,21.977c1.9,2.282,2.987,2.783,5.171,0.133   c16.909-20.522,33.97-40.917,50.983-61.352c1.666,0,3.333,0,4.999,0c7.063,6.269,13.781,12.883,19.998,19.998   c0,1.666,0,3.333,0,4.999c-9.925,11.595-19.861,23.18-29.771,34.789C82.797,77.9,67.399,95.976,51.993,114.043z"
       id="path828" /><path
       fill-rule="evenodd"
       clip-rule="evenodd"
       fill="#FDFDFD"
       d="M127.984,20.055c-6.217-7.115-12.936-13.729-19.998-19.998   c5.999,0,12,0.088,17.996-0.055c1.74-0.042,2.098,0.315,2.057,2.056C127.896,8.055,127.984,14.056,127.984,20.055z"
       id="path830" /></g><path
     style="fill:#e45028;fill-opacity:1;stroke-width:0.13432626"
     d="M 23.533039,87.005251 0.08170142,60.061531 V 57.541336 55.02114 L 8.3763483,46.767472 c 4.5620557,-4.539517 8.7705027,-8.631721 9.3521037,-9.093785 1.179246,-0.936875 1.949496,-1.36546 3.030293,-1.686133 1.844238,-0.547183 3.725837,0.05039 5.709844,1.813387 1.00868,0.896316 10.961085,12.364867 17.877272,20.600691 3.315057,3.947583 3.663343,4.312788 4.441099,4.656826 0.747655,0.330723 1.375659,0.188922 2.168374,-0.489613 0.304802,-0.260899 3.412799,-3.933919 6.906661,-8.162265 C 61.355858,50.178232 72.311759,36.986737 82.208444,25.092146 92.105129,13.197556 100.81128,2.7289715 101.55544,1.828626 l 1.35302,-1.63699149 2.55696,-0.008505 2.55695,-0.008505 1.80865,1.62903549 c 5.3587,4.8265464 11.99564,11.463168 16.56873,16.567922 l 1.56056,1.74199 v 2.446898 2.446898 l -2.86171,3.333383 C 114.6917,40.462972 83.727964,76.723219 56.095832,109.14681 l -4.092516,4.80216 h -2.50947 -2.509468 z"
     id="path841"
     inkscape:connector-curvature="0" /></svg>